# xmcd
#
# Track frame offsets: 
#        150
#        17442
#        32453
#        49192
#        62929
#        84157
#        96761
#        124340
#        144058
#        168465
#        181120
#        192098
#        208427
#        220722
#
# Disc length: 3092 seconds
#
# Revision: 0
# Processed by: cddbd v1.5.2PL0 Copyright (c) Steve Scherf et al.
# Submitted via: ExactAudioCopy v0.99pb4
#
DISCID=b80c120e
DTITLE=Rob Orlemans and Half Past Midnight - Into the Spirit
DYEAR=2009
DGENRE=Blues/Rock
TTITLE0=She Loves Rock n Roll
TTITLE1=No Hellhound
TTITLE2=J L Boogie
TTITLE3=The Blues Will Survive
TTITLE4=Morning Dew
TTITLE5=Funky Lou s
TTITLE6=Into The Spirit
TTITLE7=Your Rainy Day
TTITLE8=When The Haze Is Gone
TTITLE9=Love My Baby
TTITLE10=Black Beauty
TTITLE11=7000 Miles
TTITLE12=Wrong Number
TTITLE13=Howling Wolf
EXTD=
EXTT0=
EXTT1=
EXTT2=
EXTT3=
EXTT4=
EXTT5=
EXTT6=
EXTT7=
EXTT8=
EXTT9=
EXTT10=
EXTT11=
EXTT12=
EXTT13=
PLAYORDER=
